<?xml version="1.0" encoding="utf-8"?>
<!-- Generated by IcoMoon.io -->
<!DOCTYPE svg PUBLIC "-//W3C//DTD SVG 1.1//EN" "http://www.w3.org/Graphics/SVG/1.1/DTD/svg11.dtd">
<svg version="1.1" xmlns="http://www.w3.org/2000/svg" xmlns:xlink="http://www.w3.org/1999/xlink" width="512" height="512" viewBox="0 0 512 512">
<g id="icomoon-ignore">
</g>
<path d="M234.6 117.5v111.85l-56.975-51.6v51.75l78.375 70.899 78.375-70.899v-51.75l-57 51.6v-111.85z"></path>
<path d="M281.675 380.2c-14.476 14.199-38.025 14.199-52.525 0l-31.35-30.75-165.826 162.55h446.9l-165.801-162.55-31.399 30.75z"></path>
<path d="M511.599 155.149l-0.531 0.519 0.281-0.543-223.026-141.675c-9.012-8.639-20.725-13.035-32.574-13.442v-0.008c-0.025 0.001-0.050 0.003-0.075 0.004-0.025-0.001-0.050-0.003-0.075-0.004v0.008c-11.849 0.407-23.564 4.803-32.575 13.443l-223.025 141.674 0.444 0.86-0.444-0.435v316.775c0 8.975 2.699 16.85 6.55 23.625l170.375-167-149.564-146.584 213.613-136.091c4.017-3.821 9.163-5.719 14.45-6.147 5.286 0.428 10.432 2.325 14.45 6.147l213.788 136.202-149.738 146.473 171.125 167.75c4.125-6.901 6.95-15.051 6.95-24.375l-0.401-317.175z"></path>
</svg>
