<?xml version="1.0" encoding="utf-8"?>
<!-- Generated by IcoMoon.io -->
<!DOCTYPE svg PUBLIC "-//W3C//DTD SVG 1.1//EN" "http://www.w3.org/Graphics/SVG/1.1/DTD/svg11.dtd">
<svg version="1.1" xmlns="http://www.w3.org/2000/svg" xmlns:xlink="http://www.w3.org/1999/xlink" width="512" height="512" viewBox="0 0 512 512">
<g id="icomoon-ignore">
</g>
<path d="M239.6 207.4c0-8-1.8-15.5-4.899-22.3-15.4-19.2-24.4-42.6-24.4-68-0.001-64.7 58.999-117.1 131.699-117.1s131.8 52.4 131.8 117.1c0 64.7-59 117.1-131.8 117.1-13.2 0-25.9-1.7-37.9-4.9-19.899 20.9-47.899 34-79 34-5.1 0-10-0.399-14.899-1v-7.3c17.399-8.8 29.299-26.8 29.399-47.6v0z"></path>
<path d="M313.25 260.9c-10 8.199-21 14.899-32.801 20v140.1h-201v-316h102.8c2-22.6 9.8-43.7 21.8-62.2h-115c-26.3 0-47.9 21.5-47.9 47.9v373.4c0 26.301 21.5 47.9 47.9 47.9h181.899c26.301 0 47.9-21.6 47.9-47.9v-202.4c-1.899-0.3-3.698-0.5-5.598-0.8zM179.95 492.9c-18.5 0-33.5-10.7-33.5-23.9s15-23.9 33.5-23.9 33.5 10.7 33.5 23.9-15 23.9-33.5 23.9z"></path>
</svg>
