<?xml version="1.0" encoding="utf-8"?>
<!-- Generated by IcoMoon.io -->
<!DOCTYPE svg PUBLIC "-//W3C//DTD SVG 1.1//EN" "http://www.w3.org/Graphics/SVG/1.1/DTD/svg11.dtd">
<svg version="1.1" xmlns="http://www.w3.org/2000/svg" xmlns:xlink="http://www.w3.org/1999/xlink" width="512" height="512" viewBox="0 0 512 512">
<g id="icomoon-ignore">
</g>
<path d="M367.497 377.087c-9.477-1.494-9.691-27.327-9.691-27.327s27.845-27.328 33.912-64.075c16.326 0 26.407-39.069 10.082-52.814 0.681-14.47 20.984-113.587-81.799-113.587-102.782 0-82.479 99.118-81.799 113.587-16.327 13.745-6.243 52.814 10.081 52.814 6.067 36.747 33.913 64.075 33.913 64.075s-0.216 25.833-9.691 27.327c-30.526 4.816-144.505 54.658-144.505 109.313h384c0-54.655-113.979-104.497-144.503-109.313zM172.027 385.805c22.047-13.575 48.813-26.154 70.769-33.712-7.877-11.216-16.647-26.469-22.165-44.531-7.703-6.283-13.973-15.266-17.999-26.301-4.033-11.053-5.561-23.426-4.304-34.842 0.902-8.195 3.239-15.833 6.825-22.544-2.175-23.293-3.707-69.017 26.224-102.366 11.607-12.933 26.278-22.23 43.85-27.843-3.137-32.38-19.58-70.385-83.227-70.385-102.782 0-82.479 99.118-81.799 113.587-16.327 13.745-6.243 52.814 10.081 52.814 6.067 36.747 33.913 64.075 33.913 64.075s-0.216 25.833-9.691 27.327c-30.525 4.819-144.504 54.661-144.504 109.316h164.798c2.355-1.537 4.753-3.070 7.229-4.595z"></path>
</svg>
