<?xml version="1.0" encoding="utf-8"?>
<!-- Generated by IcoMoon.io -->
<!DOCTYPE svg PUBLIC "-//W3C//DTD SVG 1.1//EN" "http://www.w3.org/Graphics/SVG/1.1/DTD/svg11.dtd">
<svg version="1.1" xmlns="http://www.w3.org/2000/svg" xmlns:xlink="http://www.w3.org/1999/xlink" width="512" height="512" viewBox="0 0 512 512">
<g id="icomoon-ignore">
</g>
<path d="M388.745 352.214l-84.184-96.211 84.184-96.21c14.315-14.315 14.315-37.513 0-51.799-14.315-14.285-37.513-14.285-51.799 0l-80.947 92.517-80.919-92.487c-14.315-14.315-37.513-14.315-51.799 0-14.285 14.315-14.285 37.513 0 51.799l84.154 96.18-84.184 96.21c-14.285 14.315-14.285 37.453 0 51.737 14.315 14.315 37.513 14.315 51.799 0l80.949-92.455 80.919 92.456c14.315 14.315 37.513 14.315 51.799 0s14.314-37.422 0.028-51.737z"></path>
</svg>
